<svg xmlns="http://www.w3.org/2000/svg" viewBox="0 0 445.14 178.14"><defs><style>.cls-1{fill:none;}.cls-2{fill:#e85243;}.cls-3{fill:#b43e34;}</style></defs><title>Krookie-Red</title><g id="Laag_2" data-name="Laag 2"><g id="Laag_2-2" data-name="Laag 2"><path class="cls-1" d="M415.72,45.71A6.61,6.61,0,0,0,411,48.16a18.08,18.08,0,0,0-3.75,6.78,29.89,29.89,0,0,0-1.44,9.52h19.47q0-8.65-2.31-13.7T415.72,45.71Z"/><polygon class="cls-2" points="69.36 5.77 46.87 5.77 21.2 53.07 21.2 5.77 0 7.5 0 113.92 21.2 113.92 21.2 79.74 29.42 65.47 48.16 115.79 69.65 110.89 46.14 50.47 69.36 5.77"/><path class="cls-2" d="M100.07,45.86V32.73L79.89,34.46v80.32l20.19-1.73V59.84q5-4.47,13.48-6.27a68.57,68.57,0,0,1,13.63-1.8V32q-10,0-16.37,3.82A34.51,34.51,0,0,0,100.07,45.86Z"/><polygon class="cls-2" points="320.26 32.73 299.64 59.41 299.64 5.77 279.45 8.36 279.45 113.92 299.64 113.92 299.64 84.21 306.28 75.42 322.71 115.79 340.6 109.74 319.4 62.01 342.18 32.73 320.26 32.73"/><polygon class="cls-2" points="351.55 114.78 371.74 113.05 371.74 32.73 351.55 34.46 351.55 114.78"/><polygon class="cls-2" points="351.7 22.35 371.89 21.49 371.89 0 351.7 1.44 351.7 22.35"/><path class="cls-2" d="M437.64,43.12Q430.14,31.73,416,31.72q-14.85,0-22.64,11.39t-7.79,30.72q0,19,7.64,30.5t22.06,11.46q10.67,0,17.3-6t9.66-16.37L427,87.67q-.14.29-2.88,6.78t-8.36,6.49q-5,0-7.5-7.72a56.19,56.19,0,0,1-2.45-17.09h38.5q0-.14.43-.65a2.54,2.54,0,0,0,.43-1.66Q445.14,54.51,437.64,43.12ZM405.77,64.46a29.89,29.89,0,0,1,1.44-9.52A18.08,18.08,0,0,1,411,48.16a6.61,6.61,0,0,1,4.76-2.45q4.9,0,7.21,5t2.31,13.7Z"/><path class="cls-3" d="M184.07,107.92a29.88,29.88,0,0,0,3-3.73q8-11.62,8-30.64t-8-30.43q-8-11.4-22.57-11.39T142,43.12q-7.79,11.4-7.79,30.43,0,19.19,7.86,30.71a26.45,26.45,0,0,0,7.61,7.53,101.06,101.06,0,0,1,14.4-3.06A88.74,88.74,0,0,1,184.07,107.92ZM174,52.45c3.47-.47,6.79,2.87,7.41,7.47s-1.68,8.71-5.15,9.18-6.79-2.87-7.41-7.47S170.51,52.92,174,52.45Z"/><path class="cls-3" d="M257.75,104.19q8-11.62,8-30.64t-8-30.43q-8-11.4-22.57-11.39t-22.5,11.39q-7.79,11.4-7.79,30.43,0,19.19,7.86,30.71a29.22,29.22,0,0,0,3,3.72,87,87,0,0,1,20.57.74,102,102,0,0,1,13.9,2.92A27.08,27.08,0,0,0,257.75,104.19ZM246.89,69.11c-3.47.47-6.79-2.87-7.41-7.47s1.68-8.71,5.15-9.18,6.79,2.87,7.41,7.47S250.36,68.64,246.89,69.11Z"/><ellipse class="cls-3" cx="200.23" cy="126.48" rx="8.29" ry="6.85"/><path class="cls-3" d="M224.74,154.13a110.62,110.62,0,0,1-28,.54,140.58,140.58,0,0,1-28-6.14c-9.39-2.94-18.69-6.64-28.44-10.79,0,0,15.55,40.1,61.32,40.4s52.27-31.4,52.27-31.4C243.59,149.94,234.19,152.77,224.74,154.13Z"/></g></g></svg>